<?xml version="1.0" standalone="no"?>
<!DOCTYPE svg PUBLIC "-//W3C//DTD SVG 20010904//EN"
 "http://www.w3.org/TR/2001/REC-SVG-20010904/DTD/svg10.dtd">
<svg version="1.0" xmlns="http://www.w3.org/2000/svg"
 width="832.000000pt" height="832.000000pt" viewBox="0 0 832.000000 832.000000"
 preserveAspectRatio="xMidYMid meet">
<metadata>
Created by potrace 1.14, written by Peter Selinger 2001-2017
</metadata>
<g transform="translate(0.000000,832.000000) scale(0.100000,-0.100000)"
fill="#000000" stroke="none">
<path d="M4120 5291 l0 -291 -60 0 c-53 0 -60 -2 -60 -20 0 -18 -7 -20 -80
-20 -61 0 -80 -3 -80 -14 0 -18 -32 -26 -112 -26 -54 0 -68 -3 -68 -15 0 -10
-10 -15 -29 -15 -49 0 -91 -12 -91 -26 0 -8 -9 -14 -20 -14 -19 0 -20 -7 -20
-195 l0 -195 -75 0 c-60 0 -75 -3 -75 -15 0 -8 -9 -15 -20 -15 -19 0 -20 7
-20 135 0 113 -2 135 -15 135 -8 0 -15 7 -15 15 0 8 -9 15 -20 15 -13 0 -20 7
-20 20 0 19 -7 20 -100 20 -93 0 -100 -1 -100 -20 0 -19 -7 -20 -95 -20 -88 0
-95 -1 -95 -20 0 -13 -7 -20 -20 -20 -19 0 -20 -7 -20 -190 l0 -190 -24 0
c-45 0 -86 -13 -86 -26 0 -10 -13 -14 -40 -14 l-40 0 0 149 c0 140 -1 149 -20
154 -11 3 -20 12 -20 20 0 17 -30 27 -86 27 -61 0 -104 -11 -104 -26 0 -10
-14 -14 -49 -14 -68 0 -111 -10 -111 -26 0 -11 -17 -14 -71 -14 -62 0 -71 -2
-76 -20 -3 -11 -14 -20 -24 -20 -18 0 -19 -9 -19 -135 0 -113 -2 -135 -15
-135 -8 0 -15 -9 -15 -20 0 -11 7 -20 15 -20 8 0 15 -7 15 -15 0 -8 -7 -15
-15 -15 -8 0 -15 -8 -15 -19 0 -15 -10 -19 -54 -24 -30 -3 -64 -3 -75 0 -24 6
-29 33 -6 33 12 0 15 18 15 100 0 78 -3 100 -14 100 -7 0 -16 9 -19 20 -3 11
-12 20 -20 20 -8 0 -17 9 -20 20 -3 11 -12 20 -21 20 -9 0 -16 7 -16 15 0 8
-9 15 -20 15 -11 0 -20 -6 -20 -14 0 -16 -43 -26 -111 -26 -35 0 -49 -4 -49
-14 0 -13 -77 -26 -156 -26 -24 0 -34 -5 -34 -15 0 -12 -14 -15 -67 -15 -81 0
-113 -8 -113 -26 0 -8 -10 -14 -25 -14 l-25 0 0 -385 c0 -315 -2 -385 -13
-385 -18 0 -27 -227 -27 -672 0 -321 0 -328 20 -328 16 0 20 -7 20 -36 0 -27
5 -37 20 -41 15 -4 20 -14 20 -39 0 -27 4 -34 20 -34 17 0 20 -7 20 -40 0 -33
3 -40 20 -40 13 0 20 -7 20 -20 0 -11 6 -20 14 -20 8 0 17 -15 20 -35 4 -21
13 -35 21 -35 9 0 15 -9 15 -21 0 -12 8 -23 20 -26 14 -4 20 -14 20 -35 0 -21
6 -31 20 -35 11 -3 20 -14 20 -24 0 -12 7 -19 20 -19 13 0 20 -7 20 -20 0 -11
7 -20 15 -20 8 0 17 -14 21 -35 4 -25 11 -35 25 -35 12 0 19 -7 19 -20 0 -11
7 -20 15 -20 8 0 15 -9 15 -20 0 -13 7 -20 20 -20 13 0 20 -7 20 -20 0 -13 7
-20 20 -20 13 0 20 -7 20 -20 0 -13 7 -20 20 -20 13 0 20 -7 20 -20 0 -11 7
-20 15 -20 8 0 15 -7 15 -16 0 -9 9 -18 20 -21 11 -3 20 -12 20 -20 0 -8 9
-17 20 -20 11 -3 20 -12 20 -19 0 -8 9 -14 20 -14 13 0 20 -7 20 -20 0 -13 7
-20 20 -20 13 0 20 -7 20 -20 0 -13 7 -20 20 -20 13 0 20 -7 20 -20 0 -13 7
-20 20 -20 11 0 20 -6 20 -14 0 -7 9 -16 20 -19 11 -3 20 -12 20 -21 0 -9 8
-16 20 -16 13 0 20 -7 20 -20 0 -16 7 -20 35 -20 28 0 35 -4 35 -20 0 -13 7
-20 20 -20 13 0 20 -7 20 -20 0 -13 7 -20 20 -20 11 0 20 -6 20 -14 0 -8 15
-17 35 -20 21 -4 35 -13 35 -21 0 -9 9 -15 21 -15 12 0 23 -8 26 -20 4 -15 14
-20 39 -20 27 0 34 -4 34 -20 0 -13 7 -20 20 -20 11 0 20 -7 20 -15 0 -10 14
-17 40 -21 23 -4 40 -12 40 -20 0 -7 16 -16 35 -20 19 -3 35 -12 35 -19 0 -8
17 -16 40 -20 23 -4 40 -12 40 -20 0 -8 17 -16 40 -20 25 -4 40 -12 40 -21 0
-9 12 -14 36 -14 27 0 37 -5 41 -20 4 -17 14 -20 55 -20 41 0 51 -3 55 -20 4
-16 14 -20 44 -20 27 0 39 -4 39 -14 0 -16 30 -26 78 -26 20 0 32 -5 32 -14 0
-15 43 -26 106 -26 31 0 44 -4 44 -14 0 -10 21 -16 75 -21 55 -5 75 -11 75
-21 0 -11 16 -14 69 -14 87 0 131 -9 131 -26 0 -11 28 -14 138 -14 158 0 212
-7 212 -26 0 -11 24 -14 115 -14 90 0 115 3 115 13 0 17 138 27 352 27 110 0
138 3 138 14 0 17 44 26 126 26 48 0 64 3 64 14 0 10 22 16 80 21 55 5 80 11
80 20 0 8 24 15 75 20 55 5 75 11 75 21 0 10 12 14 40 14 33 0 40 3 40 20 0
18 7 20 60 20 53 0 60 2 60 20 0 18 7 20 55 20 48 0 55 2 55 20 0 16 7 20 35
20 23 0 35 5 35 14 0 9 15 17 40 21 23 4 40 12 40 20 0 8 17 16 40 20 23 4 40
12 40 20 0 7 16 16 35 19 19 4 35 13 35 20 0 8 17 16 40 20 26 4 40 11 40 21
0 8 9 15 20 15 11 0 20 7 20 15 0 10 14 17 40 21 30 5 40 11 40 25 0 12 7 19
20 19 11 0 20 7 20 15 0 8 14 17 35 21 20 3 35 12 35 20 0 8 9 14 20 14 13 0
20 7 20 19 0 14 10 21 35 25 21 4 35 13 35 21 0 8 8 15 19 15 10 0 21 9 24 20
3 12 14 20 26 20 14 0 21 6 21 20 0 11 7 20 15 20 8 0 15 7 15 15 0 8 9 15 20
15 13 0 20 7 20 20 0 13 7 20 20 20 13 0 20 7 20 19 0 14 10 21 35 25 21 4 35
13 35 21 0 8 9 15 20 15 13 0 20 7 20 20 0 13 7 20 20 20 13 0 20 7 20 20 0
13 7 20 20 20 13 0 20 7 20 20 0 13 7 20 20 20 16 0 20 7 20 35 0 28 4 35 20
35 13 0 20 7 20 20 0 13 7 20 20 20 13 0 20 7 20 20 0 13 7 20 20 20 13 0 20
7 20 20 0 11 7 20 15 20 8 0 15 7 15 16 0 9 9 18 19 21 12 3 21 17 26 39 3 20
12 34 20 34 8 0 15 9 15 20 0 13 7 20 20 20 13 0 20 7 20 20 0 11 7 20 15 20
8 0 17 14 21 35 3 20 12 35 20 35 8 0 14 9 14 21 0 12 8 23 19 26 12 3 21 17
26 39 3 19 12 34 19 34 8 0 17 16 20 35 4 21 13 35 21 35 9 0 15 10 15 25 0
15 6 25 15 25 10 0 17 14 21 40 4 22 12 40 19 40 15 0 25 31 25 78 0 22 5 32
15 32 11 0 15 11 15 40 0 29 -4 40 -15 40 -13 0 -15 48 -15 373 0 465 -8 657
-27 657 -11 0 -13 54 -13 290 l0 290 -35 0 c-23 0 -35 5 -35 14 0 16 -43 26
-111 26 -37 0 -49 4 -49 15 0 10 -10 15 -34 15 -79 0 -156 13 -156 26 0 10
-14 14 -49 14 -68 0 -111 10 -111 26 0 8 -7 14 -15 14 -8 0 -15 -7 -15 -15 0
-9 -9 -15 -21 -15 -12 0 -23 -8 -26 -19 -3 -11 -13 -21 -24 -24 -11 -3 -19
-14 -19 -26 0 -12 -6 -21 -15 -21 -12 0 -15 -17 -15 -90 0 -73 3 -90 15 -90
23 0 18 -37 -6 -43 -11 -3 -45 -3 -75 0 l-54 6 0 168 c0 144 -2 169 -15 169
-8 0 -15 9 -15 20 0 13 -7 20 -20 20 -11 0 -20 6 -20 14 0 16 -43 26 -111 26
-35 0 -49 4 -49 14 0 17 -31 26 -97 26 -38 0 -53 4 -53 14 0 9 -19 16 -60 20
-80 9 -130 0 -130 -25 0 -12 -7 -19 -20 -19 -19 0 -20 -7 -20 -150 l0 -150
-54 0 c-45 0 -54 3 -59 20 -4 15 -14 20 -41 20 l-36 0 0 190 c0 183 -1 190
-20 190 -13 0 -20 7 -20 20 0 19 -7 20 -95 20 -88 0 -95 1 -95 20 0 19 -7 20
-100 20 -93 0 -100 -1 -100 -20 0 -11 -6 -20 -14 -20 -7 0 -16 -9 -19 -20 -3
-11 -12 -20 -21 -20 -14 0 -16 -18 -16 -135 0 -128 -1 -135 -20 -135 -13 0
-20 7 -20 20 0 18 -7 20 -75 20 l-75 0 0 188 c0 103 -3 197 -6 208 -5 19 -15
22 -95 29 -67 5 -89 10 -89 21 0 10 -14 14 -52 14 -67 0 -98 9 -98 26 0 11
-19 14 -80 14 -73 0 -80 2 -80 20 0 18 -7 20 -55 20 l-55 0 0 115 c0 91 3 115
14 115 7 0 16 9 19 20 4 17 14 20 65 20 79 0 122 -9 122 -26 0 -8 10 -14 25
-14 15 0 25 6 25 14 0 13 41 26 86 26 17 0 24 6 24 20 0 13 7 20 20 20 11 0
20 7 20 15 0 8 7 15 16 15 9 0 18 9 21 20 3 11 12 20 19 20 10 0 14 13 14 40
l0 40 -109 0 c-100 0 -109 2 -114 20 -3 12 -14 20 -26 20 -12 0 -21 6 -21 14
0 16 -30 26 -77 26 -23 0 -33 5 -33 15 0 11 -11 15 -42 15 -24 0 -67 3 -95 6
l-53 7 0 -292z"/>
</g>
</svg>
